<?xml version="1.0" encoding="UTF-8"?>
<svg width="1440px" height="936px" viewBox="0 0 1440 936" version="1.1" xmlns="http://www.w3.org/2000/svg" xmlns:xlink="http://www.w3.org/1999/xlink">
    <title>E122FD5C-A365-486D-BB20-FC9B4814E64C</title>
    <defs>
        <rect id="path-1" x="0" y="0" width="1440" height="936"></rect>
    </defs>
    <g id="Login" stroke="none" stroke-width="1" fill="none" fill-rule="evenodd">
        <g id="0100---Login-to-Dashboard" transform="translate(0.000000, -88.000000)">
            <g id="Group" transform="translate(0.000000, 88.000000)">
                <mask id="mask-2" fill="white">
                    <use xlink:href="#path-1"></use>
                </mask>
                <g id="Rectangle"></g>
                <rect id="Rectangle" fill="#22A2C8" mask="url(#mask-2)" x="0" y="0" width="1440" height="936"></rect>
                <path d="M-13.4896192,725.618609 C-13.4896192,725.618609 117.963363,628.193671 229.87768,725.144426 C341.791997,822.095182 462.50631,722.559596 462.50631,722.559596 C462.50631,722.559596 655.237167,516.528991 841.574657,716.473657 C1027.91215,916.418323 996.653963,711.635402 1148.37121,708.52664 C1300.08846,705.417877 1280.71756,576.850023 1452.65174,703.952381 C1624.58593,831.054739 1461.9197,940 1461.9197,940 L-28,940 L-13.4896192,725.618609 Z" id="Path-2-Copy-2" stroke="#FFFFFF" fill="#FFFFFF" opacity="0.2" mask="url(#mask-2)"></path>
                <path d="M1457.70233,804.99149 C1457.70233,804.99149 1328.17632,714.098261 1217.90255,804.549098 C1107.62879,894.999934 988.684031,802.137563 988.684031,802.137563 C988.684031,802.137563 798.778419,609.919973 615.172454,796.459647 C431.566489,982.999321 312.873236,789.045426 312.873236,789.045426 C312.873236,789.045426 182.466951,666.196872 13.0531569,784.777842 C-156.360638,903.358812 3.92106413,1005 3.92106413,1005 L1472,1005 L1457.70233,804.99149 Z" id="Path-2-Copy" fill="#FFFFFF" opacity="0.1" mask="url(#mask-2)"></path>
            </g>
        </g>
    </g>
</svg>