<?xml version="1.0" encoding="UTF-8"?>
<svg width="24px" height="24px" viewBox="0 0 24 24" version="1.1" xmlns="http://www.w3.org/2000/svg" xmlns:xlink="http://www.w3.org/1999/xlink">
    <title>6933FE0C-22E4-4276-8864-00BD8DE66002</title>
    <g id="Login" stroke="none" stroke-width="1" fill="none" fill-rule="evenodd">
        <g id="0104---Login-to-Dashboard" transform="translate(-480.000000, -532.000000)" fill="#BBC1C6">
            <g id="Group" transform="translate(448.000000, 216.000000)">
                <g id="1.-Subatoms/Icons/square" transform="translate(32.000000, 316.000000)">
                    <path d="M5,4 C4.44771525,4 4,4.44771525 4,5 L4,19 C4,19.5522847 4.44771525,20 5,20 L19,20 C19.5522847,20 20,19.5522847 20,19 L20,5 C20,4.44771525 19.5522847,4 19,4 L5,4 Z M5,2 L19,2 C20.6568542,2 22,3.34314575 22,5 L22,19 C22,20.6568542 20.6568542,22 19,22 L5,22 C3.34314575,22 2,20.6568542 2,19 L2,5 C2,3.34314575 3.34314575,2 5,2 Z" id="Rectangle-path"></path>
                </g>
            </g>
        </g>
    </g>
</svg>