<?xml version="1.0" encoding="UTF-8"?>
<svg width="24px" height="24px" viewBox="0 0 24 24" version="1.1" xmlns="http://www.w3.org/2000/svg" xmlns:xlink="http://www.w3.org/1999/xlink">
    <title>3523FAA0-B973-4F3F-8C77-48EBFA6347A6</title>
    <g id="Recruit---Job-Posting" stroke="none" stroke-width="1" fill="none" fill-rule="evenodd">
        <g id="0200---Recruit---Job-Posting-List" transform="translate(-584.000000, -300.000000)" fill="#3FC1E8">
            <g id="3.-Molecules/Card/Jobs-Small-Thumbnail" transform="translate(280.000000, 276.000000)">
                <g id="1.-Subatoms/Icons/circle-next" transform="translate(304.000000, 24.000000)">
                    <path d="M12,1 C18.0751322,1 23,5.92486775 23,12 C23,18.0751322 18.0751322,23 12,23 C5.92486775,23 1,18.0751322 1,12 C1,5.92486775 5.92486775,1 12,1 Z M12,3 C7.02943725,3 3,7.02943725 3,12 C3,16.9705627 7.02943725,21 12,21 C16.9705627,21 21,16.9705627 21,12 C21,7.02943725 16.9705627,3 12,3 Z M10.7071068,7.29289322 L14.7071068,11.2928932 C15.0976311,11.6834175 15.0976311,12.3165825 14.7071068,12.7071068 L10.7071068,16.7071068 C10.3165825,17.0976311 9.68341751,17.0976311 9.29289322,16.7071068 C8.90236893,16.3165825 8.90236893,15.6834175 9.29289322,15.2928932 L12.5857864,12 L9.29289322,8.70710678 C8.90236893,8.31658249 8.90236893,7.68341751 9.29289322,7.29289322 C9.68341751,6.90236893 10.3165825,6.90236893 10.7071068,7.29289322 Z" id="Combined-Shape"></path>
                </g>
            </g>
        </g>
    </g>
</svg>