<?xml version="1.0" encoding="UTF-8"?>
<svg width="17px" height="16px" viewBox="0 0 17 16" version="1.1" xmlns="http://www.w3.org/2000/svg" xmlns:xlink="http://www.w3.org/1999/xlink">
    <title>57E3564C-12E7-4CBD-B58A-40EB2FBB7C8B</title>
    <g id="Recruit---Job-Posting" stroke="none" stroke-width="1" fill="none" fill-rule="evenodd">
        <g id="0802---Recruit---Job-Posting-List" transform="translate(-1360.000000, -526.000000)" fill="#22A2C8">
            <g id="3.-Molecules/Container-Elements/Job-Preview-Separator" transform="translate(281.000000, 498.000000)">
                <g id="2.-Atoms/Button/Text-Link+Icon/Default-No-Icon" transform="translate(1043.047445, 24.000000)">
                    <g id="1.-Subatoms/Icons/chevron-right" transform="translate(36.000000, 4.000000)">
                        <path d="M6.22666667,2 C6.5948565,2 6.89333333,2.29847683 6.89333333,2.66666667 C6.89333333,3.0348565 6.5948565,3.33333333 6.22666667,3.33333333 L6.22666667,3.33333333 L2.66666667,3.33333333 C2.29847683,3.33333333 2,3.63181017 2,4 L2,4 L2,13.3333333 C2,13.7015232 2.29847683,14 2.66666667,14 L2.66666667,14 L12,14 C12.3681898,14 12.6666667,13.7015232 12.6666667,13.3333333 L12.6666667,13.3333333 L12.6666667,9.77333333 C12.6666667,9.4051435 12.9651435,9.10666667 13.3333333,9.10666667 C13.7015232,9.10666667 14,9.4051435 14,9.77333333 L14,9.77333333 L14,13.3333333 C14,14.4379028 13.1045695,15.3333333 12,15.3333333 L12,15.3333333 L2.66666667,15.3333333 C1.56209717,15.3333333 0.666666667,14.4379028 0.666666667,13.3333333 L0.666666667,13.3333333 L0.666666667,4 C0.666666667,2.8954305 1.56209717,2 2.66666667,2 L2.66666667,2 Z M12.4714045,0.861928813 L15.1380712,3.52859548 C15.3984207,3.78894501 15.3984207,4.21105499 15.1380712,4.47140452 L8.47140452,11.1380712 C8.34638027,11.2630954 8.17681099,11.3333333 8,11.3333333 L5.33333333,11.3333333 C4.9651435,11.3333333 4.66666667,11.0348565 4.66666667,10.6666667 L4.66666667,8 C4.66666667,7.82318901 4.73690456,7.65361973 4.86192881,7.52859548 L11.5285955,0.861928813 C11.788945,0.601579285 12.211055,0.601579285 12.4714045,0.861928813 Z M12,2.27614237 L6,8.27614237 L6,10 L7.72385763,10 L13.7238576,4 L12,2.27614237 Z" id="Combined-Shape"></path>
                    </g>
                </g>
            </g>
        </g>
    </g>
</svg>