<?xml version="1.0" encoding="UTF-8"?>
<svg width="25px" height="24px" viewBox="0 0 25 24" version="1.1" xmlns="http://www.w3.org/2000/svg" xmlns:xlink="http://www.w3.org/1999/xlink">
    <title>21B4B9CF-69BF-46D5-AF29-94AA52E81FCA</title>
    <g id="Recruit---Job-Posting" stroke="none" stroke-width="1" fill="none" fill-rule="evenodd">
        <g id="0800---Recruit---Job-Posting-List" transform="translate(-874.000000, -344.000000)" fill="#131313">
            <g id="3.-Molecules/Dropdown-Menu/4-Menu-Pop-Up" transform="translate(859.000000, 270.000000)">
                <g id="2.-Atoms/List/Dropdown-List-1" transform="translate(0.000000, 64.000000)">
                    <g id="1.-Subatoms/Icons/chevron-down" transform="translate(16.000000, 10.000000)">
                        <path d="M9.34,3 C9.89228475,3 10.34,3.44771525 10.34,4 C10.34,4.55228475 9.89228475,5 9.34,5 L9.34,5 L4,5 C3.44771525,5 3,5.44771525 3,6 L3,6 L3,20 C3,20.5522847 3.44771525,21 4,21 L4,21 L18,21 C18.5522847,21 19,20.5522847 19,20 L19,20 L19,14.66 C19,14.1077153 19.4477153,13.66 20,13.66 C20.5522847,13.66 21,14.1077153 21,14.66 L21,14.66 L21,20 C21,21.6568542 19.6568542,23 18,23 L18,23 L4,23 C2.34314575,23 1,21.6568542 1,20 L1,20 L1,6 C1,4.34314575 2.34314575,3 4,3 L4,3 Z M18.7071068,1.29289322 L22.7071068,5.29289322 C23.0976311,5.68341751 23.0976311,6.31658249 22.7071068,6.70710678 L12.7071068,16.7071068 C12.5195704,16.8946432 12.2652165,17 12,17 L8,17 C7.44771525,17 7,16.5522847 7,16 L7,12 C7,11.7347835 7.10535684,11.4804296 7.29289322,11.2928932 L17.2928932,1.29289322 C17.6834175,0.902368927 18.3165825,0.902368927 18.7071068,1.29289322 Z M18,3.41421356 L9,12.4142136 L9,15 L11.5857864,15 L20.5857864,6 L18,3.41421356 Z" id="Combined-Shape"></path>
                    </g>
                </g>
            </g>
        </g>
    </g>
</svg>