<?xml version="1.0" encoding="UTF-8"?>
<svg width="16px" height="16px" viewBox="0 0 16 16" version="1.1" xmlns="http://www.w3.org/2000/svg" xmlns:xlink="http://www.w3.org/1999/xlink">
    <title>48DCF232-F072-4C81-ADD5-7A2F32EBB618</title>
    <g id="Recruit---Job-Posting" stroke="none" stroke-width="1" fill="none" fill-rule="evenodd">
        <g id="0802---Recruit---Job-Posting-List" transform="translate(-304.000000, -526.000000)" fill="#131313">
            <g id="3.-Molecules/Container-Elements/Job-Preview-Separator" transform="translate(281.000000, 498.000000)">
                <g id="Group-2-Copy" transform="translate(23.000000, 24.000000)">
                    <g id="1.-Subatoms/Icons/clock-Copy-2" transform="translate(0.000000, 4.000000)">
                        <path d="M1.75717109,3.23575847 C3.86534703,0.766942788 7.34478978,-0.0199092318 10.3086271,1.30190556 C10.6446353,1.45175876 10.7956545,1.84587595 10.645938,2.18219094 C10.4962215,2.51850593 10.1024639,2.66966307 9.76645582,2.51980987 C7.34149798,1.43832504 4.49468119,2.08211305 2.76980997,4.10205315 C1.04493874,6.12199325 0.85290602,9.0369022 2.29784951,11.2660497 C3.74279301,13.4951971 6.48050321,14.5075632 9.02634317,13.7541504 C11.5721831,13.0007376 13.3196915,10.6610214 13.3212094,8.00419105 L13.3212094,8.00419105 L13.3212094,7.38419105 C13.3212094,7.01600121 13.6194139,6.71752438 13.9872678,6.71752438 C14.3551216,6.71752438 14.6533261,7.01600121 14.6533261,7.38419105 L14.6533261,7.38419105 L14.6533261,8.00457223 C14.6514708,11.2522752 12.5156272,14.1119284 9.404045,15.0327663 C6.29246283,15.9536041 2.94637259,14.7162678 1.18033054,11.9917542 C-0.585711508,9.26724063 -0.35100485,5.70457414 1.75717109,3.23575847 Z M14.1823517,1.53278653 C14.4424637,1.272437 14.8641886,1.272437 15.1243006,1.53278653 C15.3844125,1.79313605 15.3844125,2.21524604 15.1243006,2.47559557 L15.1243006,2.47559557 L7.79765822,9.8089289 C7.53754624,10.0692784 7.11582139,10.0692784 6.8557094,9.8089289 L6.8557094,9.8089289 L4.85753422,7.8089289 C4.59742224,7.54857937 4.59742224,7.12646939 4.85753422,6.86611986 C5.1176462,6.60577033 5.53937105,6.60577033 5.79948304,6.86611986 L5.79948304,6.86611986 L7.32668381,8.39471534 Z" id="Combined-Shape"></path>
                    </g>
                </g>
            </g>
        </g>
    </g>
</svg>