<?xml version="1.0" encoding="UTF-8"?>
<svg width="195px" height="40px" viewBox="0 0 195 40" version="1.1" xmlns="http://www.w3.org/2000/svg" xmlns:xlink="http://www.w3.org/1999/xlink">
    <title>43F1E6C5-EDA5-48EC-8B8B-C7BAB0F29E5D</title>
    <g id="Symbols" stroke="none" stroke-width="1" fill="none" fill-rule="evenodd">
        <g id="new_logo_findwork" transform="translate(0.000000, 6.000000)">
            <path d="M0,19.9385789 L8.76761053,28.4446842 L8.76761053,17.0122105 L0,8.50610526 L0,19.9385789 Z M0,0 L8.76761053,8.50610526 L20.4635053,8.50610526 L11.6958947,0 L0,0 Z M8.76761053,17.0122105 L17.5352211,17.0122105 L8.76761053,8.50610526 L8.76761053,17.0122105 Z" id="Shape" fill="#3FC1E8"></path>
            <path d="M159.860179,13.6193474 L159.860179,7.52713684 C158.068916,7.45050526 156.6474,7.83366316 155.594674,8.67661053 C154.540989,9.51955789 153.711453,10.6431684 153.106063,12.0484 L153.106063,8.10187368 L147.102937,8.10187368 L147.102937,28.4446842 L153.106063,28.4446842 L153.106063,20.8591158 C153.106063,18.382 153.678884,16.5562526 154.824526,15.3809158 C155.969211,14.2065368 157.543032,13.6183895 159.544074,13.6183895 L159.860179,13.6183895 L159.860179,13.6193474 Z M118.911137,8.10283158 L115.488579,20.3993263 L111.545884,8.10283158 L106.200832,8.10283158 L102.297411,20.3610105 L98.9534,8.10283158 L92.8793895,8.10283158 L99.2877053,28.4446842 L104.757284,28.4446842 L108.853242,15.9939684 L112.871611,28.4446842 L118.381421,28.4446842 L124.866368,8.10283158 L118.911137,8.10283158 Z M85.5323368,17.8331263 C85.5323368,18.6818211 85.3944,19.4615474 85.1175684,20.1627263 C84.8416947,20.8715684 84.4729053,21.4788737 84.0121579,21.9760211 C83.5597051,22.4724811 83.0082409,22.8686216 82.3933158,23.1389053 C81.7735579,23.4071158 81.1087789,23.5412211 80.3980211,23.5412211 C79.6872632,23.5412211 79.0224842,23.4071158 78.4036842,23.1389053 C77.7845209,22.8657924 77.227017,22.4702286 76.7647263,21.9760211 C76.2905684,21.4779158 75.9150737,20.8715684 75.6392,20.1627263 C75.3623684,19.4605895 75.2244316,18.6818211 75.2244316,17.8331263 L75.2244316,17.7564947 C75.2244316,16.8819368 75.3623684,16.0964632 75.6392,15.4067789 C75.8954059,14.7418671 76.2775748,14.1326735 76.7647263,13.6126421 C77.2270894,13.1187595 77.7845914,12.7235229 78.4036842,12.4507158 C79.0335386,12.1802984 79.7125896,12.043314 80.3980211,12.0484 C81.1087789,12.0484 81.7735579,12.1825053 82.3923579,12.4507158 C83.0111579,12.7246737 83.5514105,13.1078316 84.0112,13.6126421 C84.4729053,14.1107474 84.8416947,14.7170947 85.1175684,15.4259368 C85.3944,16.1280737 85.5323368,16.9068421 85.5323368,17.7564947 L85.5323368,17.8331263 L85.5323368,17.8331263 Z M91.4559579,28.0615263 L91.4559579,0.0957894737 L85.4537895,0.0957894737 L85.4537895,10.1824211 C84.7420737,9.37204211 83.8665579,8.6632 82.8272421,8.05589474 C81.7869684,7.45050526 80.4641158,7.14302105 78.8577263,7.14302105 C77.5933053,7.14302105 76.3825263,7.37291579 75.2244316,7.83270526 C74.0698161,8.29003497 73.0263322,8.98895687 72.1639579,9.8826 C71.2807789,10.7897263 70.5700211,11.9008842 70.0307263,13.2160737 C69.4914316,14.5312632 69.2203474,16.0447368 69.2203474,17.7555368 L69.2203474,17.8321684 C69.2203474,19.5429684 69.4914316,21.0564421 70.0307263,22.3716316 C70.5700211,23.6868211 71.2874842,24.7979789 72.1831158,25.7051053 C73.0551494,26.5962956 74.1046775,27.2943492 75.2637053,27.7540421 C76.4227579,28.2138316 77.6201263,28.4437263 78.8577263,28.4437263 C80.4382526,28.4437263 81.7467368,28.1304947 82.7870105,27.5116947 C83.8203036,26.89852 84.725741,26.0919522 85.4537895,25.1361158 L85.4537895,28.4437263 L91.4559579,28.4437263 L91.4559579,28.0605684 L91.4559579,28.0615263 Z M67.8285263,28.4446842 L67.8285263,15.1510211 C67.8285263,12.7754421 67.2039789,10.9113789 65.9529684,9.55787368 C64.7029158,8.20436842 62.9317684,7.52713684 60.6414421,7.52713684 C59.8770421,7.52713684 59.1931053,7.61717895 58.5877158,7.79534737 C58.005827,7.96905009 57.4483453,8.21592562 56.9286421,8.53005263 C56.4383079,8.83425031 55.9817003,9.18971066 55.5665158,9.59044211 C55.1584526,9.99275789 54.7829579,10.4075263 54.4409895,10.8481579 L54.4409895,8.10187368 L48.4369053,8.10187368 L48.4369053,28.4446842 L54.4409895,28.4446842 L54.4409895,17.0160421 C54.4409895,15.6433789 54.7762526,14.6021474 55.4467789,13.9067158 C56.1192211,13.2045789 57.0340105,12.8530316 58.1921053,12.8530316 C59.3511579,12.8530316 60.2458316,13.2045789 60.8780421,13.9067158 C61.5102526,14.6021474 61.8263579,15.6433789 61.8263579,17.0160421 L61.8263579,28.4446842 L67.8294842,28.4446842 L67.8285263,28.4446842 Z M34.7303895,7.89113684 L34.7303895,7.12482105 C34.7303895,5.64487368 35.4536,4.90346316 36.9019368,4.90346316 C37.4287789,4.90346316 37.9029368,4.94752632 38.3244105,5.03756842 C38.7458842,5.12665263 39.1798105,5.24830526 39.6271474,5.40156842 L39.6271474,0.574736842 C39.0273606,0.385174622 38.4132806,0.244227719 37.7908632,0.153263158 C37.1184211,0.0517263158 36.3099579,-7.85504474e-16 35.3616421,-7.85504474e-16 C33.2293684,-7.85504474e-16 31.6028632,0.529715789 30.485,1.59010526 C29.3652211,2.64953684 28.8058105,4.31627368 28.8058105,6.58935789 L28.8058105,7.89209474 L26.3181579,7.89209474 L26.3181579,12.6806105 L28.8058105,12.6806105 L28.8058105,28.4446842 L34.8089368,28.4446842 L34.8089368,12.6806105 L39.5878737,12.6806105 L39.5888316,7.89113684 L34.7303895,7.89113684 L34.7303895,7.89113684 Z M41.0122632,28.4446842 L47.0153895,28.4446842 L47.0153895,8.10378947 L41.0122632,8.10378947 L41.0122632,28.4446842 Z M44.0133474,6.12956842 C45.7538421,6.12956842 47.1724842,4.75307368 47.1724842,3.06430526 C47.1724842,1.37649474 45.7538421,-0.000957894737 44.0133474,-0.000957894737 C42.2728526,-0.000957894737 40.8532526,1.37649474 40.8532526,3.06430526 C40.8532526,4.75307368 42.2728526,6.12956842 44.0133474,6.12956842 M134.660842,12.8913474 C131.891568,12.8913474 129.645305,15.0696 129.645305,17.7564947 C129.645305,20.4433895 131.891568,22.6216421 134.6618,22.6216421 C137.431074,22.6216421 139.677337,20.4433895 139.677337,17.7555368 C139.677337,15.0696 137.431074,12.8913474 134.6618,12.8913474 M134.6618,7.06734737 C140.747305,7.06734737 145.680463,11.8529895 145.680463,17.7564947 C145.680463,23.6590421 140.747305,28.4446842 134.6618,28.4446842 C128.576295,28.4446842 123.642179,23.6590421 123.642179,17.7564947 C123.642179,11.8529895 128.575337,7.06830526 134.6618,7.06830526 M167.286737,1.5288 L167.286737,-7.85504474e-16 L161.282653,-7.85504474e-16 L161.282653,28.4446842 L167.285779,28.4446842 L167.285779,22.2001684 L169.378779,20.0544842 L174.907747,28.4446842 L181.779684,28.4446842 L173.446,15.9939684 L181.313189,8.10187368 L174.135684,8.10187368 L167.286737,15.3818737 L167.286737,1.5288 Z" id="Shape" fill="#3D4449"></path>
            <path d="M184.592,8 L184.592,2.912 L186.56,2.912 L186.56,2.4 L182.032,2.4 L182.032,2.912 L184,2.912 L184,8 L184.592,8 Z M188.072,8 L188.072,3.544 L190.272,7.288 L190.552,7.288 L192.752,3.52 L192.752,8 L193.32,8 L193.32,2.4 L192.832,2.4 L190.424,6.552 L187.992,2.4 L187.504,2.4 L187.504,8 L188.072,8 Z" id="TM" fill="#3D4449"></path>
        </g>
    </g>
</svg>