<?xml version="1.0" encoding="UTF-8"?>
<svg width="156px" height="32px" viewBox="0 0 156 32" version="1.1" xmlns="http://www.w3.org/2000/svg" xmlns:xlink="http://www.w3.org/1999/xlink">
    <title>70204DD7-17F0-4123-A15B-B7D9EFB34C60</title>
    <g id="Login" stroke="none" stroke-width="1" fill="none" fill-rule="evenodd">
        <g id="0100---Login-to-Dashboard" transform="translate(-160.000000, -28.000000)" fill="#FFFFFF">
            <g id="Assets/Brands/Logo-FindWork" transform="translate(160.000000, 28.000000)">
                <g id="new_logo_findwork" transform="translate(0.000000, 4.800000)">
                    <path d="M0,15.9508632 L7.01408842,22.7557474 L7.01408842,13.6097684 L0,6.80488421 L0,15.9508632 Z M0,0 L7.01408842,6.80488421 L16.3708042,6.80488421 L9.35671579,0 L0,0 Z M7.01408842,13.6097684 L14.0281768,13.6097684 L7.01408842,6.80488421 L7.01408842,13.6097684 Z" id="Shape"></path>
                    <path d="M127.888143,10.8954779 L127.888143,6.02170947 C126.455133,5.96040421 125.31792,6.26693053 124.475739,6.94128842 C123.632792,7.61564632 122.969162,8.51453474 122.484851,9.63872 L122.484851,6.48149895 L117.682349,6.48149895 L117.682349,22.7557474 L122.484851,22.7557474 L122.484851,16.6872926 C122.484851,14.7056 122.943107,13.2450021 123.859621,12.3047326 C124.775368,11.3652295 126.034425,10.8947116 127.635259,10.8947116 L127.888143,10.8947116 L127.888143,10.8954779 Z M95.1289095,6.48226526 L92.3908632,16.3194611 L89.2367074,6.48226526 L84.9606653,6.48226526 L81.8379284,16.2888084 L79.16272,6.48226526 L74.3035116,6.48226526 L79.4301642,22.7557474 L83.8058274,22.7557474 L87.0825937,12.7951747 L90.2972884,22.7557474 L94.7051368,22.7557474 L99.8930947,6.48226526 L95.1289095,6.48226526 Z M68.4258695,14.2665011 C68.4258695,14.9454568 68.31552,15.5692379 68.0940547,16.1301811 C67.8733558,16.6972547 67.5783242,17.1830989 67.2097263,17.5808168 C66.8477641,17.9779849 66.4065928,18.2948973 65.9146526,18.5111242 C65.4188463,18.7256926 64.8870232,18.8329768 64.3184168,18.8329768 C63.7498105,18.8329768 63.2179874,18.7256926 62.7229474,18.5111242 C62.2276167,18.2926339 61.7816136,17.9761829 61.4117811,17.5808168 C61.0324547,17.1823326 60.7320589,16.6972547 60.51136,16.1301811 C60.2898947,15.5684716 60.1795453,14.9454568 60.1795453,14.2665011 L60.1795453,14.2051958 C60.1795453,13.5055495 60.2898947,12.8771705 60.51136,12.3254232 C60.7163247,11.7934937 61.0220599,11.3061388 61.4117811,10.8901137 C61.7816715,10.4950076 62.2276731,10.1788183 62.7229474,9.96057263 C63.2268309,9.7442387 63.7700717,9.63465122 64.3184168,9.63872 C64.8870232,9.63872 65.4188463,9.74600421 65.9138863,9.96057263 C66.4089263,10.1797389 66.8411284,10.4862653 67.20896,10.8901137 C67.5783242,11.2885979 67.8733558,11.7736758 68.0940547,12.3407495 C68.31552,12.9024589 68.4258695,13.5254737 68.4258695,14.2051958 L68.4258695,14.2665011 L68.4258695,14.2665011 Z M73.1647663,22.4492211 L73.1647663,0.0766315789 L68.3630316,0.0766315789 L68.3630316,8.14593684 C67.7936589,7.49763368 67.0932463,6.93056 66.2617937,6.44471579 C65.4295747,5.96040421 64.3712926,5.71441684 63.0861811,5.71441684 C62.0746442,5.71441684 61.1060211,5.89833263 60.1795453,6.26616421 C59.2558528,6.63202797 58.4210658,7.1911655 57.7311663,7.90608 C57.0246232,8.63178105 56.4560168,9.52070737 56.0245811,10.5728589 C55.5931453,11.6250105 55.3762779,12.8357895 55.3762779,14.2044295 L55.3762779,14.2657347 C55.3762779,15.6343747 55.5931453,16.8451537 56.0245811,17.8973053 C56.4560168,18.9494568 57.0299874,19.8383832 57.7464926,20.5640842 C58.4441196,21.2770365 59.283742,21.8354794 60.2109642,22.2032337 C61.1382063,22.5710653 62.0961011,22.7549811 63.0861811,22.7549811 C64.3506021,22.7549811 65.3973895,22.5043958 66.2296084,22.0093558 C67.0562429,21.518816 67.7805928,20.8735618 68.3630316,20.1088926 L68.3630316,22.7549811 L73.1647663,22.7549811 L73.1647663,22.4484547 L73.1647663,22.4492211 Z M54.2628211,22.7557474 L54.2628211,12.1208168 C54.2628211,10.2203537 53.7631832,8.72910316 52.7623747,7.64629895 C51.7623326,6.56349474 50.3454147,6.02170947 48.5131537,6.02170947 C47.9016337,6.02170947 47.3544842,6.09374316 46.8701726,6.23627789 C46.4046616,6.37524007 45.9586763,6.5727405 45.5429137,6.82404211 C45.1506463,7.06740025 44.7853602,7.35176853 44.4532126,7.67235368 C44.1267621,7.99420632 43.8263663,8.32602105 43.5527916,8.67852632 L43.5527916,6.48149895 L38.7495242,6.48149895 L38.7495242,22.7557474 L43.5527916,22.7557474 L43.5527916,13.6128337 C43.5527916,12.5147032 43.8210021,11.6817179 44.3574232,11.1253726 C44.8953768,10.5636632 45.6272084,10.2824253 46.5536842,10.2824253 C47.4809263,10.2824253 48.1966653,10.5636632 48.7024337,11.1253726 C49.2082021,11.6817179 49.4610863,12.5147032 49.4610863,13.6128337 L49.4610863,22.7557474 L54.2635874,22.7557474 L54.2628211,22.7557474 Z M27.7843116,6.31290947 L27.7843116,5.69985684 C27.7843116,4.51589895 28.36288,3.92277053 29.5215495,3.92277053 C29.9430232,3.92277053 30.3223495,3.95802105 30.6595284,4.03005474 C30.9967074,4.10132211 31.3438484,4.19864421 31.7017179,4.32125474 L31.7017179,0.459789474 C31.2218885,0.308139697 30.7306245,0.195382175 30.2326905,0.122610526 C29.6947368,0.0413810526 29.0479663,-3.55293052e-15 28.2893137,-3.55293052e-15 C26.5834947,-3.55293052e-15 25.2822905,0.423772632 24.388,1.27208421 C23.4921768,2.11962947 23.0446484,3.45301895 23.0446484,5.27148632 L23.0446484,6.31367579 L21.0545263,6.31367579 L21.0545263,10.1444884 L23.0446484,10.1444884 L23.0446484,22.7557474 L27.8471495,22.7557474 L27.8471495,10.1444884 L31.6702989,10.1444884 L31.6710653,6.31290947 L27.7843116,6.31290947 L27.7843116,6.31290947 Z M32.8098105,22.7557474 L37.6123116,22.7557474 L37.6123116,6.48303158 L32.8098105,6.48303158 L32.8098105,22.7557474 Z M35.2106779,4.90365474 C36.6030737,4.90365474 37.7379874,3.80245895 37.7379874,2.45144421 C37.7379874,1.10119579 36.6030737,-0.000766315789 35.2106779,-0.000766315789 C33.8182821,-0.000766315789 32.6826021,1.10119579 32.6826021,2.45144421 C32.6826021,3.80245895 33.8182821,4.90365474 35.2106779,4.90365474 M107.728674,10.3130779 C105.513255,10.3130779 103.716244,12.05568 103.716244,14.2051958 C103.716244,16.3547116 105.513255,18.0973137 107.72944,18.0973137 C109.944859,18.0973137 111.741869,16.3547116 111.741869,14.2044295 C111.741869,12.05568 109.944859,10.3130779 107.72944,10.3130779 M107.72944,5.65387789 C112.597844,5.65387789 116.544371,9.48239158 116.544371,14.2051958 C116.544371,18.9272337 112.597844,22.7557474 107.72944,22.7557474 C102.861036,22.7557474 98.9137432,18.9272337 98.9137432,14.2051958 C98.9137432,9.48239158 102.860269,5.65464421 107.72944,5.65464421 M133.829389,1.22304 L133.829389,-3.55293052e-15 L129.026122,-3.55293052e-15 L129.026122,22.7557474 L133.828623,22.7557474 L133.828623,17.7601347 L135.503023,16.0435874 L139.926198,22.7557474 L145.423747,22.7557474 L138.7568,12.7951747 L145.050552,6.48149895 L139.308547,6.48149895 L133.829389,12.3054989 L133.829389,1.22304 Z" id="Shape"></path>
                    <path d="M147.6736,6.4 L147.6736,2.3296 L149.248,2.3296 L149.248,1.92 L145.6256,1.92 L145.6256,2.3296 L147.2,2.3296 L147.2,6.4 L147.6736,6.4 Z M150.4576,6.4 L150.4576,2.8352 L152.2176,5.8304 L152.4416,5.8304 L154.2016,2.816 L154.2016,6.4 L154.656,6.4 L154.656,1.92 L154.2656,1.92 L152.3392,5.2416 L150.3936,1.92 L150.0032,1.92 L150.0032,6.4 L150.4576,6.4 Z" id="TM"></path>
                </g>
            </g>
        </g>
    </g>
</svg>