<?xml version="1.0" encoding="UTF-8"?>
<svg width="16px" height="16px" viewBox="0 0 16 16" version="1.1" xmlns="http://www.w3.org/2000/svg" xmlns:xlink="http://www.w3.org/1999/xlink">
    <title>6F790E7C-6679-4B61-AAFE-E931D08D05E5</title>
    <g id="Recruit---Job-Posting" stroke="none" stroke-width="1" fill="none" fill-rule="evenodd">
        <g id="0802---Recruit---Job-Posting-List" transform="translate(-304.000000, -454.000000)" fill="#BBC1C6">
            <g id="Location" transform="translate(304.000000, 450.000000)">
                <g id="1.-Subatoms/Icons/pin-location" transform="translate(0.000000, 4.000000)">
                    <path d="M8.00333333,1.12666667 C10.4304647,1.12666667 12.6185312,2.5889453 13.5469867,4.83147446 C14.4754422,7.07400363 13.9613868,9.6550191 12.2445833,11.3706976 L12.2445833,11.3706976 L8.47140452,15.1438764 C8.21089221,15.4043888 7.78846074,15.404202 7.52817886,15.1434595 L7.52817886,15.1434595 L3.76151219,11.3701261 C2.04527991,9.6550191 1.53122446,7.07400363 2.45967996,4.83147446 C3.38813545,2.5889453 5.57620197,1.12666667 8.00333333,1.12666667 Z M8.00333333,2.46 C6.11556449,2.46 4.41373498,3.59732783 3.69160293,5.34151718 C2.96947088,7.08570653 3.36929178,9.093163 4.70458333,10.4275796 L4.70458333,10.4275796 L8.00041694,13.7292459 L11.3019288,10.4277341 C12.6373749,9.093163 13.0371958,7.08570653 12.3150637,5.34151718 C11.5929317,3.59732783 9.89110217,2.46 8.00333333,2.46 Z M8,4 C9.47275933,4 10.6666667,5.19390733 10.6666667,6.66666667 C10.6666667,8.139426 9.47275933,9.33333333 8,9.33333333 C6.52724067,9.33333333 5.33333333,8.139426 5.33333333,6.66666667 C5.33333333,5.19390733 6.52724067,4 8,4 Z M8,5.33333333 C7.26362033,5.33333333 6.66666667,5.930287 6.66666667,6.66666667 C6.66666667,7.40304633 7.26362033,8 8,8 C8.73637967,8 9.33333333,7.40304633 9.33333333,6.66666667 C9.33333333,5.930287 8.73637967,5.33333333 8,5.33333333 Z" id="Combined-Shape"></path>
                </g>
            </g>
        </g>
    </g>
</svg>