<?xml version="1.0" encoding="UTF-8"?>
<svg width="24px" height="24px" viewBox="0 0 24 24" version="1.1" xmlns="http://www.w3.org/2000/svg" xmlns:xlink="http://www.w3.org/1999/xlink">
    <title>A429835B-7571-451B-B3EF-FB2C985E8F8B</title>
    <g id="Recruit---Job-Posting" stroke="none" stroke-width="1" fill="none" fill-rule="evenodd" opacity="0.5">
        <g id="0100---Recruit---Job-Posting-List" transform="translate(-184.000000, -32.000000)" fill="#FFFFFF">
            <g id="Group" transform="translate(0.000000, 32.000000)">
                <g id="1.-Subatoms/Icons/circle-back" transform="translate(184.000000, 0.000000)">
                    <path d="M12,1 C18.0751322,1 23,5.92486775 23,12 C23,18.0751322 18.0751322,23 12,23 C5.92486775,23 1,18.0751322 1,12 C1,5.92486775 5.92486775,1 12,1 Z M12,3 C7.02943725,3 3,7.02943725 3,12 C3,16.9705627 7.02943725,21 12,21 C16.9705627,21 21,16.9705627 21,12 C21,7.02943725 16.9705627,3 12,3 Z M12.2928932,7.29289322 C12.6834175,6.90236893 13.3165825,6.90236893 13.7071068,7.29289322 C14.0976311,7.68341751 14.0976311,8.31658249 13.7071068,8.70710678 L13.7071068,8.70710678 L10.4142136,12 L13.7071068,15.2928932 C14.0976311,15.6834175 14.0976311,16.3165825 13.7071068,16.7071068 C13.3165825,17.0976311 12.6834175,17.0976311 12.2928932,16.7071068 L12.2928932,16.7071068 L8.29289322,12.7071068 C7.90236893,12.3165825 7.90236893,11.6834175 8.29289322,11.2928932 L8.29289322,11.2928932 Z" id="Combined-Shape"></path>
                </g>
            </g>
        </g>
    </g>
</svg>