<svg width="66" height="58" viewBox="0 0 66 58" fill="none" xmlns="http://www.w3.org/2000/svg">
<path d="M52.0824 57.6651H13.7725C9.21253 57.6651 5.04253 55.6118 2.64253 52.1451C0.242529 48.6784 0.0325288 44.4651 2.07253 40.8118L7.23253 31.6118C8.91253 28.6251 11.6125 26.7584 14.6425 26.4651C17.6725 26.1718 20.7625 27.5051 23.1025 30.0918L23.7625 30.8384C25.0825 32.2784 26.6125 33.0518 28.1124 32.9184C29.6124 32.8118 30.9924 31.8518 32.0124 30.2251L37.6824 21.1318C40.0224 17.3718 43.1424 15.4252 46.5324 15.5585C49.8924 15.7185 52.7724 17.9585 54.6924 21.9052L64.0824 41.3984C65.8224 44.9984 65.4024 49.1051 62.9724 52.3851C60.5724 55.7184 56.4924 57.6651 52.0824 57.6651ZM15.4825 30.4651C15.3625 30.4651 15.2425 30.4651 15.1225 30.4918C13.6225 30.6251 12.2425 31.6918 11.2525 33.4251L6.09253 42.6251C4.74253 44.9984 4.89253 47.7984 6.45253 50.0651C8.01253 52.3318 10.7725 53.6918 13.7725 53.6918H52.0524C54.9924 53.6918 57.6024 52.4384 59.2224 50.2518C60.8424 48.0651 61.1124 45.4518 59.9424 43.0518L50.5524 23.5585C49.4124 21.1585 47.8224 19.6918 46.2924 19.6385C44.8824 19.5585 43.0524 20.8918 41.6124 23.1585L35.9424 32.2518C34.2024 35.0251 31.4724 36.7584 28.5024 36.9984C25.5325 37.2118 22.5025 35.9318 20.2525 33.4251L19.5925 32.6784C18.3325 31.2118 16.8925 30.4651 15.4825 30.4651ZM17.9121 20.332C11.7321 20.332 6.66211 15.852 6.66211 10.332C6.66211 4.81203 11.7021 0.332031 17.9121 0.332031C24.1221 0.332031 29.1621 4.81203 29.1621 10.332C29.1621 15.852 24.1221 20.332 17.9121 20.332ZM17.9121 4.33203C14.1921 4.33203 11.1621 7.02536 11.1621 10.332C11.1621 13.6387 14.1921 16.332 17.9121 16.332C21.6321 16.332 24.6621 13.6387 24.6621 10.332C24.6621 7.02536 21.6321 4.33203 17.9121 4.33203Z" fill="#C9C9C9"/>
</svg>
