<?xml version="1.0" encoding="UTF-8"?>
<svg width="24px" height="24px" viewBox="0 0 24 24" version="1.1" xmlns="http://www.w3.org/2000/svg" xmlns:xlink="http://www.w3.org/1999/xlink">
    <title>74935ABE-0E42-4635-B97B-FB1507AB6802</title>
    <g id="Recruit---Job-Posting" stroke="none" stroke-width="1" fill="none" fill-rule="evenodd">
        <g id="0100---Recruit---Job-Posting-List" transform="translate(-32.000000, -553.000000)" fill="#FFFFFF">
            <g id="Group" transform="translate(0.000000, 32.000000)">
                <g id="2.-Atoms/List/Services-Menu" transform="translate(0.000000, 505.000000)">
                    <g id="1.-Subatoms/Icons/activity" transform="translate(32.000000, 16.000000)">
                        <path d="M16,1 C16.5522847,1 17,1.44771525 17,2 L17,2 L17,3 L19,3 C20.6568542,3 22,4.34314575 22,6 L22,20 C22,21.6568542 20.6568542,23 19,23 L5,23 C3.34314575,23 2,21.6568542 2,20 L2,6 C2,4.34314575 3.34314575,3 5,3 L7,3 L7,2 C7,1.48716416 7.38604019,1.06449284 7.88337887,1.00672773 L8,1 C8.55228475,1 9,1.44771525 9,2 L9,2 L9,3 L15,3 L15,2 C15,1.48716416 15.3860402,1.06449284 15.8833789,1.00672773 Z M20,11 L4,11 L4,20 C4,20.5522847 4.44771525,21 5,21 L19,21 C19.5522847,21 20,20.5522847 20,20 L20,11 Z M7,5 L5,5 C4.44771525,5 4,5.44771525 4,6 L4,9 L20,9 L20,6 C20,5.44771525 19.5522847,5 19,5 L17,5 L17,6 C17,6.51283584 16.6139598,6.93550716 16.1166211,6.99327227 L16,7 C15.4477153,7 15,6.55228475 15,6 L15,6 L15,5 L9,5 L9,6 C9,6.51283584 8.61395981,6.93550716 8.11662113,6.99327227 L8,7 C7.44771525,7 7,6.55228475 7,6 L7,6 L7,5 Z" id="Combined-Shape"></path>
                    </g>
                </g>
            </g>
        </g>
    </g>
</svg>