<?xml version="1.0" encoding="UTF-8"?>
<svg width="16px" height="16px" viewBox="0 0 16 16" version="1.1" xmlns="http://www.w3.org/2000/svg" xmlns:xlink="http://www.w3.org/1999/xlink">
    <title>7E8736F0-C29B-4893-9245-6D8355D3B537</title>
    <g id="Recruit---Job-Posting" stroke="none" stroke-width="1" fill="none" fill-rule="evenodd">
        <g id="0802---Recruit---Job-Posting-List" transform="translate(-304.000000, -426.000000)" fill="#BBC1C6">
            <g id="Salary" transform="translate(304.000000, 422.000000)">
                <g id="1.-Subatoms/Icons/briefcase" transform="translate(0.000000, 4.000000)">
                    <path d="M2.66666667,14.6666667 C1.56209717,14.6666667 0.666666667,13.7712362 0.666666667,12.6666667 L0.666666667,6 C0.666666667,4.8954305 1.56209717,4 2.66666667,4 L4.66666667,3.99933333 L4.66666667,3.33333333 C4.66666667,2.27897154 5.48254446,1.41516821 6.51740432,1.33881907 L6.66666667,1.33333333 L9.33333333,1.33333333 C10.4379028,1.33333333 11.3333333,2.22876383 11.3333333,3.33333333 L11.3333333,3.33333333 L11.3326667,3.99933333 L13.3333333,4 C14.4379028,4 15.3333333,4.8954305 15.3333333,6 L15.3333333,12.6666667 C15.3333333,13.7712362 14.4379028,14.6666667 13.3333333,14.6666667 L2.66666667,14.6666667 Z M4.66666667,5.33333333 L2.66666667,5.33333333 C2.29847683,5.33333333 2,5.63181017 2,6 L2,12.6666667 C2,13.0348565 2.29847683,13.3333333 2.66666667,13.3333333 L4.66666667,13.3333333 L4.66666667,5.33333333 Z M9.99966667,5.33333333 L5.99966667,5.33333333 L5.99966667,13.3333333 L9.99966667,13.3333333 L9.99966667,5.33333333 Z M13.3333333,5.33333333 L11.3326667,5.33333333 L11.3326667,13.3333333 L13.3333333,13.3333333 C13.7015232,13.3333333 14,13.0348565 14,12.6666667 L14,6 C14,5.63181017 13.7015232,5.33333333 13.3333333,5.33333333 Z M9.33333333,2.66666667 L6.66666667,2.66666667 C6.29847683,2.66666667 6,2.9651435 6,3.33333333 L6,3.33333333 L5.99966667,3.99933333 L9.99966667,3.99933333 L10,3.33333333 C10,2.9986153 9.75332493,2.72151132 9.43184845,2.67389505 L9.33333333,2.66666667 Z" id="Combined-Shape"></path>
                </g>
            </g>
        </g>
    </g>
</svg>