<?xml version="1.0" encoding="UTF-8"?>
<svg width="24px" height="25px" viewBox="0 0 24 25" version="1.1" xmlns="http://www.w3.org/2000/svg" xmlns:xlink="http://www.w3.org/1999/xlink">
    <title>2E3DB07C-78A1-415C-926E-2562EC5D6CF9</title>
    <g id="Setting---Company" stroke="none" stroke-width="1" fill="none" fill-rule="evenodd">
        <g id="0100---Setting---Company" transform="translate(-32.000000, -768.000000)" fill="#FFFFFF">
            <g id="2.-Atoms/List/Services-Menu" transform="translate(0.000000, 753.000000)">
                <g id="1.-Subatoms/Icons/activity" transform="translate(32.000000, 16.000000)">
                    <path d="M20,1 C20.5522847,1 21,1.44771525 21,2 L21,22 C21,22.5522847 20.5522847,23 20,23 L6.5,23 C4.56700338,23 3,21.4329966 3,19.5 L3,4.5 C3,2.56700338 4.56700338,1 6.5,1 L20,1 Z M19,18 L6.5,18 C5.67157288,18 5,18.6715729 5,19.5 L5,19.5 C5,20.3284271 5.67157288,21 6.5,21 L19,21 L19,18 Z M19,3 L6.5,3 C5.67157288,3 5,3.67157288 5,4.5 L4.99996673,16.3368314 C5.45460288,16.1208514 5.96318826,16 6.5,16 L6.5,16 L19,16 L19,3 Z" id="Combined-Shape"></path>
                </g>
            </g>
        </g>
    </g>
</svg>