<?xml version="1.0" encoding="UTF-8"?>
<svg width="24px" height="25px" viewBox="0 0 24 25" version="1.1" xmlns="http://www.w3.org/2000/svg" xmlns:xlink="http://www.w3.org/1999/xlink">
    <title>F40732DF-70C5-4927-80E0-308113E1CC74</title>
    <g id="Setting---Company" stroke="none" stroke-width="1" fill="none" fill-rule="evenodd">
        <g id="0100---Setting---Company" transform="translate(-32.000000, -656.000000)" fill="#FFFFFF">
            <g id="2.-Atoms/List/Services-Menu" transform="translate(0.000000, 641.000000)">
                <g id="1.-Subatoms/Icons/activity" transform="translate(32.000000, 16.000000)">
                    <path d="M15,1 C16.1045695,1 17,1.8954305 17,3 L18,3 C19.6568542,3 21,4.34314575 21,6 L21,6 L21,20 C21,21.6568542 19.6568542,23 18,23 L18,23 L6,23 C4.34314575,23 3,21.6568542 3,20 L3,20 L3,6 C3,4.34314575 4.34314575,3 6,3 L6,3 L7,3 C7,1.8954305 7.8954305,1 9,1 L15,1 Z M7,5 L6,5 C5.44771525,5 5,5.44771525 5,6 L5,6 L5,20 C5,20.5522847 5.44771525,21 6,21 L6,21 L18,21 C18.5522847,21 19,20.5522847 19,20 L19,20 L19,6 C19,5.44771525 18.5522847,5 18,5 L18,5 L17,5 C17,6.1045695 16.1045695,7 15,7 L9,7 C7.8954305,7 7,6.1045695 7,5 Z M15,3 L9,3 L9,5 L15,5 L15,3 Z" id="Combined-Shape"></path>
                </g>
            </g>
        </g>
    </g>
</svg>