<svg width="153" height="105" viewBox="0 0 153 105" fill="none" xmlns="http://www.w3.org/2000/svg">
<path d="M118.888 104.689H94.2956H87.6735H86.2433V73.4966H97.0315C99.7674 73.4966 101.384 70.5567 99.7674 68.44L78.7817 40.9817C77.4449 39.2178 74.6779 39.2178 73.341 40.9817L52.3554 68.44C50.7387 70.5567 52.3243 73.4966 55.0913 73.4966H65.8794V104.689H64.4493H57.8272H29.3178C12.9956 103.836 0 89.4013 0 73.7612C0 62.9719 6.18689 53.5643 15.3584 48.4784C14.519 46.3323 14.0837 44.0392 14.0837 41.6285C14.0837 30.604 23.5039 21.6962 35.1626 21.6962C37.6809 21.6962 40.1059 22.1078 42.3755 22.9015C49.122 9.37817 63.6721 0 80.585 0C102.472 0.0293986 120.504 15.8753 122.556 36.0721C139.376 38.8062 152.154 53.5349 152.154 70.204C152.154 88.0195 137.479 103.454 118.888 104.689Z" fill="#827D7D"/>
</svg>
