<svg xmlns="http://www.w3.org/2000/svg" viewBox="0 0 444.84 121.54"><defs><style>.cls-1{fill:#4c9c2e;}.cls-2{fill:#483729;}</style></defs><g id="Layer_2" data-name="Layer 2"><g id="레이어_1" data-name="레이어 1"><path class="cls-1" d="M228.77,0a25.51,25.51,0,0,0-2.66,50.89V38.74l-9.76-9.09,2.34-2.5,7.42,6.91V12.12h5.79V25.23l5.48-5.52,2.42,2.41-7.9,8V50.84A25.52,25.52,0,0,0,228.77,0Z"/><rect class="cls-1" x="225.66" y="58.56" width="6.22" height="62.98" rx="0.25"/><path class="cls-2" d="M34.83,60H.38a.25.25,0,0,0-.24.25v59.58a.25.25,0,0,0,.24.25H4.7a.25.25,0,0,0,.24-.25v-28H32.12a.24.24,0,0,0,.24-.24l0-3.75a.28.28,0,0,0-.07-.17.24.24,0,0,0-.18-.07H4.94V64.24H34.83a.24.24,0,0,0,.24-.24V60.26a.25.25,0,0,0-.08-.18A.24.24,0,0,0,34.83,60Z"/><path class="cls-2" d="M92.25,94.21a17.37,17.37,0,0,0,9.56-5.67,16.85,16.85,0,0,0,3.69-11.08,17.65,17.65,0,0,0-2.39-9.28,15.78,15.78,0,0,0-6.87-6.07A24.32,24.32,0,0,0,85.79,60H66a.25.25,0,0,0-.24.25v59.58a.25.25,0,0,0,.24.25h4.32a.25.25,0,0,0,.24-.25V95.08H87.3L101.78,120a.27.27,0,0,0,.22.12h5a.24.24,0,0,0,.21-.12.23.23,0,0,0,0-.25Zm6.61-9.49a11.58,11.58,0,0,1-5.15,4.53,19.06,19.06,0,0,1-8.12,1.6h-15V64.24H85.5a19.2,19.2,0,0,1,8.15,1.6,11.61,11.61,0,0,1,5.19,4.55,15.16,15.16,0,0,1,0,14.33Z"/><path class="cls-2" d="M183.53,59.52h-4.32a.25.25,0,0,0-.24.25V98.7a19.33,19.33,0,0,1-2.17,9.35,15.1,15.1,0,0,1-6.21,6.13,22.5,22.5,0,0,1-19.28,0,14.91,14.91,0,0,1-6.18-6.13A19.44,19.44,0,0,1,143,98.7V59.77a.25.25,0,0,0-.25-.25h-4.27a.25.25,0,0,0-.25.25V98.62A23.47,23.47,0,0,0,141,110.17a19.16,19.16,0,0,0,7.94,7.71,28.19,28.19,0,0,0,24.08,0,19.2,19.2,0,0,0,8-7.71,23.34,23.34,0,0,0,2.79-11.55V59.77A.25.25,0,0,0,183.53,59.52Z"/><path class="cls-2" d="M313.74,60H267.4a.25.25,0,0,0-.25.25V64a.25.25,0,0,0,.25.24h20.77v55.6a.25.25,0,0,0,.24.25h4.32a.25.25,0,0,0,.24-.25V64.24h20.77A.25.25,0,0,0,314,64V60.26A.25.25,0,0,0,313.74,60Z"/><path class="cls-2" d="M382.61,60H336.26a.25.25,0,0,0-.24.25V64a.24.24,0,0,0,.24.24H357v55.6a.24.24,0,0,0,.24.25h4.32a.25.25,0,0,0,.24-.25V64.24h20.77a.25.25,0,0,0,.25-.24V60.26A.25.25,0,0,0,382.61,60Z"/><path class="cls-2" d="M444.56,64.24a.24.24,0,0,0,.24-.24l0-3.74a.24.24,0,0,0-.07-.17.25.25,0,0,0-.18-.08h-35a.25.25,0,0,0-.24.25v59.58a.25.25,0,0,0,.24.25h34.94a.26.26,0,0,0,.17-.07.24.24,0,0,0,.07-.18l0-3.74a.25.25,0,0,0-.25-.24H414.18V91.51h30.37a.24.24,0,0,0,.17-.07.25.25,0,0,0,.08-.18l0-3.74a.24.24,0,0,0-.24-.24H414.18v-23Z"/><path class="cls-1" d="M15.7,29.32c0,3-2.07,4.92-5.57,5.22v3.68h7.23c.51,0,.75.41.75.91s-.24.93-.75.93H.75c-.51,0-.75-.43-.75-.93s.24-.91.75-.91H8V34.54c-3.52-.3-5.54-2.2-5.54-5.22,0-3.3,2.45-5.26,6.62-5.26S15.7,26,15.7,29.32Zm-11.11,0c0,1.94,1.38,3.43,4.47,3.43s4.46-1.49,4.46-3.43-1.38-3.43-4.46-3.43S4.59,27.38,4.59,29.32Z"/><path class="cls-1" d="M51.54,32.58c0,.49-.24.9-.73.9H34.16c-.5,0-.73-.41-.73-.9s.23-.89.73-.89H50.81C51.3,31.69,51.54,32.1,51.54,32.58Zm-2.46,4.26v1.6c0,1.23-.41,1.62-1.66,1.62H38.3c-.24,0-.34.08-.34.32v.88c0,.22.1.33.34.33H48.84a.75.75,0,0,1,.71.84c0,.45-.23.84-.71.84H37.52c-1.25,0-1.66-.39-1.66-1.62V40.06c0-1.23.41-1.62,1.66-1.62h9.12c.24,0,.35-.11.35-.32v-.87c0-.23-.11-.34-.35-.34H36.51c-.47,0-.69-.39-.69-.84s.22-.84.69-.84H47.42C48.67,35.23,49.08,35.62,49.08,36.84Zm-11-12.41v3.34c0,.32.13.43.46.43H48.67c.5,0,.73.41.73.88s-.23.91-.73.91H37.57c-1.25,0-1.64-.39-1.64-1.62V24.43c0-.65.52-.93,1.08-.93S38.08,23.78,38.08,24.43Z"/><path class="cls-1" d="M82.44,25.44c0,.49-.23.93-.75.93H71.92c-.32,0-.45.1-.45.43v4.89c0,.33.13.43.45.43h10c.52,0,.76.43.76.93s-.24.93-.76.93H77v4.24h7.22c.52,0,.76.41.76.91s-.24.93-.76.93H67.61c-.52,0-.76-.43-.76-.93s.24-.91.76-.91h7.22V34H71c-1.25,0-1.64-.39-1.64-1.62V26.13c0-1.23.39-1.62,1.64-1.62H81.69C82.21,24.51,82.44,24.94,82.44,25.44Z"/><path class="cls-1" d="M118.39,39.13c0,.5-.23.93-.75.93H101c-.52,0-.76-.43-.76-.93s.24-.93.76-.93h16.6C118.16,38.2,118.39,38.61,118.39,39.13Zm-1.94-13.5c0,.48-.23.89-.75.89h-2.09v6.12h2.2c.49,0,.73.41.73.91s-.24.88-.73.88H102.87c-.5,0-.73-.39-.73-.88s.23-.91.73-.91h2.2V26.52H103c-.52,0-.76-.41-.76-.89s.24-.9.76-.9H115.7C116.22,24.73,116.45,25.14,116.45,25.63Zm-4.93,7V26.52h-4.36v6.12Z"/><path class="cls-1" d="M151.82,34.19c0,.48-.24.87-.73.87h-7.27v.81a.75.75,0,0,1-.65.78.79.79,0,0,1,.67.76v.28c0,1.1.67,1.72,2.29,2.37,1.29.51,2.39.9,3.64,1.33a.85.85,0,0,1,.37,1.15.93.93,0,0,1-1.21.54c-1.12-.39-2.31-.82-3.38-1.25-1.86-.76-2.57-1.32-2.76-1.88h0c-.18.58-.91,1.16-2.76,1.92-1.08.43-2.27.86-3.41,1.25a.92.92,0,0,1-1.19-.56.87.87,0,0,1,.35-1.17c1.25-.43,2.35-.82,3.64-1.33,1.62-.65,2.29-1.27,2.29-2.37v-.28a.79.79,0,0,1,.64-.76.76.76,0,0,1-.62-.78v-.81h-7.27c-.49,0-.73-.39-.73-.87s.24-.88.73-.88h16.65C151.58,33.31,151.82,33.7,151.82,34.19Zm-2.59-8.69v1.64c0,1.23-.41,1.62-1.66,1.62h-8.88a.28.28,0,0,0-.32.32V30a.28.28,0,0,0,.32.32H149c.47,0,.69.39.69.84s-.22.87-.69.87H137.94c-1.25,0-1.66-.39-1.66-1.62V28.74c0-1.23.41-1.62,1.66-1.62h8.86c.23,0,.34-.09.34-.32v-.89c0-.21-.11-.32-.34-.32h-9.88c-.47,0-.69-.39-.69-.86s.22-.84.69-.84h10.65C148.82,23.89,149.23,24.27,149.23,25.5Z"/><path class="cls-1" d="M173.13,24.32v1.83h3c.52,0,.76.43.76.91s-.24.92-.76.92h-8.49c-.54,0-.78-.43-.78-.92s.24-.91.78-.91H171V24.32a.94.94,0,0,1,1.05-.89C172.61,23.43,173.13,23.71,173.13,24.32Zm3,9.14a4.07,4.07,0,1,1-8.13,0,4.07,4.07,0,1,1,8.13,0Zm-6.25,0a2.2,2.2,0,1,0,4.39,0,2.2,2.2,0,1,0-4.39,0ZM184,24.15V41.09c0,.58-.5.84-1,.84a.89.89,0,0,1-1-.84V32h-2.28v8.24a.88.88,0,0,1-1,.82c-.5,0-1-.26-1-.82V24.34c0-.56.5-.82,1-.82a.88.88,0,0,1,1,.82v5.8H182v-6a.89.89,0,0,1,1-.85C183.52,23.3,184,23.56,184,24.15Z"/><path class="cls-1" d="M290.76,39.13c0,.5-.24.93-.75.93H273.4c-.51,0-.75-.43-.75-.93s.24-.93.75-.93H290C290.52,38.2,290.76,38.61,290.76,39.13Zm-1.94-13.5c0,.48-.24.89-.75.89H286v6.12h2.2c.5,0,.74.41.74.91s-.24.88-.74.88H275.24c-.5,0-.74-.39-.74-.88s.24-.91.74-.91h2.2V26.52h-2.1c-.51,0-.75-.41-.75-.89s.24-.9.75-.9h12.73C288.58,24.73,288.82,25.14,288.82,25.63Zm-4.94,7V26.52h-4.35v6.12Z"/><path class="cls-1" d="M324.21,36c0,.49-.24.92-.75.92h-7.23v5.59c0,.62-.52.9-1.08.9s-1.07-.28-1.07-.9V37h-7.23c-.51,0-.75-.43-.75-.92s.24-.91.75-.91h16.61C324,35.12,324.21,35.55,324.21,36Zm-2.57-10.31v2.2c0,1.23-.41,1.62-1.66,1.62h-8.77c-.33,0-.45.1-.45.43v1.08c0,.32.12.43.45.43h10.13a.78.78,0,0,1,.76.88c0,.47-.24.88-.76.88h-11c-1.25,0-1.66-.36-1.66-1.59V29.43c0-1.23.41-1.62,1.66-1.62h8.78c.32,0,.45-.11.45-.43V26.32c0-.32-.13-.43-.45-.43h-9.73a.78.78,0,0,1-.75-.88c0-.48.24-.91.75-.91H320C321.23,24.1,321.64,24.49,321.64,25.72Z"/><path class="cls-1" d="M344.2,25.85c0,.49-.23.93-.75.93h-1.08c-.34,0-.45.1-.45.43v7.5c0,.32.11.43.45.43a6.77,6.77,0,0,0,1.38-.11c.45,0,.76.28.82.78s-.13.95-.58,1a18.72,18.72,0,0,1-2.42.18c-1.25,0-1.66-.39-1.66-1.62V26.54c0-1.23.41-1.62,1.66-1.62h1.88C344,24.92,344.2,25.35,344.2,25.85Zm5.44,0c0,.49-.24.93-.76.93h-1.44c-.33,0-.45.1-.45.43v7.5c0,.32.12.43.45.43a15.12,15.12,0,0,0,1.79-.08c.47-.05.75.28.82.75s-.13.95-.59,1a17.13,17.13,0,0,1-2.8.18c-1.25,0-1.66-.39-1.66-1.62V26.54c0-1.23.41-1.62,1.66-1.62h2.22C349.4,24.92,349.64,25.35,349.64,25.85Zm3.43-1.51V40.21c0,.56-.48.82-1,.82a.86.86,0,0,1-1-.82V31.63h-1.57c-.52,0-.75-.41-.75-.93s.23-.93.75-.93h1.57V24.34a.86.86,0,0,1,1-.82C352.59,23.52,353.07,23.78,353.07,24.34Zm3.57-.22v17c0,.56-.47.82-1,.82a.87.87,0,0,1-1-.82v-17a.87.87,0,0,1,1-.82C356.17,23.3,356.64,23.56,356.64,24.12Z"/></g></g></svg>